{
    "asset" : {
        "generator" : "Khronos glTF Blender I/O v1.5.17",
        "version" : "2.0"
    },
    "scene" : 0,
    "scenes" : [
        {
            "name" : "Scene",
            "nodes" : [
                0
            ]
        }
    ],
    "nodes" : [
        {
            "mesh" : 0,
            "name" : "Cylinder"
        }
    ],
    "materials" : [
        {
            "doubleSided" : true,
            "name" : "AliCornHead",
            "pbrMetallicRoughness" : {
                "baseColorFactor" : [
                    0.07018930464982986,
                    0.028987105935811996,
                    0.002301465719938278,
                    1
                ],
                "metallicFactor" : 0,
                "roughnessFactor" : 0.8943662047386169
            }
        },
        {
            "doubleSided" : true,
            "name" : "AliCornBody",
            "pbrMetallicRoughness" : {
                "baseColorFactor" : [
                    0.799102783203125,
                    0.5209956765174866,
                    0.061246056109666824,
                    1
                ],
                "metallicFactor" : 0,
                "roughnessFactor" : 0.21830984950065613
            }
        }
    ],
    "meshes" : [
        {
            "name" : "Cylinder",
            "primitives" : [
                {
                    "attributes" : {
                        "POSITION" : 0,
                        "NORMAL" : 1,
                        "TEXCOORD_0" : 2
                    },
                    "indices" : 3,
                    "material" : 0
                },
                {
                    "attributes" : {
                        "POSITION" : 4,
                        "NORMAL" : 5,
                        "TEXCOORD_0" : 6
                    },
                    "indices" : 7,
                    "material" : 1
                }
            ]
        }
    ],
    "accessors" : [
        {
            "bufferView" : 0,
            "componentType" : 5126,
            "count" : 697,
            "max" : [
                1.0395480394363403,
                1.3135013580322266,
                1.0482107400894165
            ],
            "min" : [
                -1.0435333251953125,
                -0.004426747560501099,
                -1.0348706245422363
            ],
            "type" : "VEC3"
        },
        {
            "bufferView" : 1,
            "componentType" : 5126,
            "count" : 697,
            "type" : "VEC3"
        },
        {
            "bufferView" : 2,
            "componentType" : 5126,
            "count" : 697,
            "type" : "VEC2"
        },
        {
            "bufferView" : 3,
            "componentType" : 5123,
            "count" : 1065,
            "type" : "SCALAR"
        },
        {
            "bufferView" : 4,
            "componentType" : 5126,
            "count" : 357,
            "max" : [
                0.9755985736846924,
                -0.004426747560501099,
                0.9788860082626343
            ],
            "min" : [
                -0.9731394648551941,
                -1.699904203414917,
                -0.9698520302772522
            ],
            "type" : "VEC3"
        },
        {
            "bufferView" : 5,
            "componentType" : 5126,
            "count" : 357,
            "type" : "VEC3"
        },
        {
            "bufferView" : 6,
            "componentType" : 5126,
            "count" : 357,
            "type" : "VEC2"
        },
        {
            "bufferView" : 7,
            "componentType" : 5123,
            "count" : 555,
            "type" : "SCALAR"
        }
    ],
    "bufferViews" : [
        {
            "buffer" : 0,
            "byteLength" : 8364,
            "byteOffset" : 0
        },
        {
            "buffer" : 0,
            "byteLength" : 8364,
            "byteOffset" : 8364
        },
        {
            "buffer" : 0,
            "byteLength" : 5576,
            "byteOffset" : 16728
        },
        {
            "buffer" : 0,
            "byteLength" : 2130,
            "byteOffset" : 22304
        },
        {
            "buffer" : 0,
            "byteLength" : 4284,
            "byteOffset" : 24436
        },
        {
            "buffer" : 0,
            "byteLength" : 4284,
            "byteOffset" : 28720
        },
        {
            "buffer" : 0,
            "byteLength" : 2856,
            "byteOffset" : 33004
        },
        {
            "buffer" : 0,
            "byteLength" : 1110,
            "byteOffset" : 35860
        }
    ],
    "buffers" : [
        {
            "byteLength" : 36972,
            "uri" : "data:application/octet-stream;base64,"
        }
    ]
}
