{
    "asset" : {
        "generator" : "Khronos glTF Blender I/O v1.6.16",
        "version" : "2.0"
    },
    "scene" : 0,
    "scenes" : [
        {
            "name" : "Scene",
            "nodes" : [
                0
            ]
        }
    ],
    "nodes" : [
        {
            "mesh" : 0,
            "name" : "Sphere"
        }
    ],
    "materials" : [
        {
            "doubleSided" : true,
            "name" : "basketColor",
            "pbrMetallicRoughness" : {
                "baseColorFactor" : [
                    0.4215679168701172,
                    0.059493884444236755,
                    0.8000000715255737,
                    1
                ],
                "metallicFactor" : 0,
                "roughnessFactor" : 0.5
            }
        }
    ],
    "meshes" : [
        {
            "name" : "Sphere",
            "primitives" : [
                {
                    "attributes" : {
                        "POSITION" : 0,
                        "NORMAL" : 1,
                        "TEXCOORD_0" : 2
                    },
                    "indices" : 3,
                    "material" : 0
                }
            ]
        }
    ],
    "accessors" : [
        {
            "bufferView" : 0,
            "componentType" : 5126,
            "count" : 2204,
            "max" : [
                1.261242389678955,
                1.6415077447891235,
                1.20586359500885
            ],
            "min" : [
                -1.2612415552139282,
                -1,
                -1.2048143148422241
            ],
            "type" : "VEC3"
        },
        {
            "bufferView" : 1,
            "componentType" : 5126,
            "count" : 2204,
            "type" : "VEC3"
        },
        {
            "bufferView" : 2,
            "componentType" : 5126,
            "count" : 2204,
            "type" : "VEC2"
        },
        {
            "bufferView" : 3,
            "componentType" : 5123,
            "count" : 3228,
            "type" : "SCALAR"
        }
    ],
    "bufferViews" : [
        {
            "buffer" : 0,
            "byteLength" : 26448,
            "byteOffset" : 0
        },
        {
            "buffer" : 0,
            "byteLength" : 26448,
            "byteOffset" : 26448
        },
        {
            "buffer" : 0,
            "byteLength" : 17632,
            "byteOffset" : 52896
        },
        {
            "buffer" : 0,
            "byteLength" : 6456,
            "byteOffset" : 70528
        }
    ],
    "buffers" : [
        {
            "byteLength" : 76984,
            "uri" : "data:application/octet-stream;base64,"
        }
    ]
}
