{
    "asset" : {
        "generator" : "Khronos glTF Blender I/O v1.6.16",
        "version" : "2.0"
    },
    "scene" : 0,
    "scenes" : [
        {
            "name" : "Scene",
            "nodes" : [
                0
            ]
        }
    ],
    "nodes" : [
        {
            "mesh" : 0,
            "name" : "Plane.008",
            "rotation" : [
                0,
                -0.14212895929813385,
                0,
                0.989848256111145
            ],
            "scale" : [
                0.981542706489563,
                0.981542706489563,
                0.981542706489563
            ],
            "translation" : [
                0.005843400955200195,
                -0.036190807819366455,
                0.020845413208007812
            ]
        }
    ],
    "materials" : [
        {
            "doubleSided" : true,
            "name" : "M10",
            "pbrMetallicRoughness" : {
                "baseColorFactor" : [
                    0.7105485796928406,
                    0.23730143904685974,
                    0.06157555431127548,
                    1
                ],
                "metallicFactor" : 0,
                "roughnessFactor" : 0.5
            }
        }
    ],
    "meshes" : [
        {
            "name" : "Plane.009",
            "primitives" : [
                {
                    "attributes" : {
                        "POSITION" : 0,
                        "NORMAL" : 1
                    },
                    "indices" : 2,
                    "material" : 0
                }
            ]
        }
    ],
    "accessors" : [
        {
            "bufferView" : 0,
            "componentType" : 5126,
            "count" : 992,
            "max" : [
                2.5217204093933105,
                24.332056045532227,
                1.8731069564819336
            ],
            "min" : [
                -2.752816677093506,
                0.016701139509677887,
                -2.1027159690856934
            ],
            "type" : "VEC3"
        },
        {
            "bufferView" : 1,
            "componentType" : 5126,
            "count" : 992,
            "type" : "VEC3"
        },
        {
            "bufferView" : 2,
            "componentType" : 5123,
            "count" : 1488,
            "type" : "SCALAR"
        }
    ],
    "bufferViews" : [
        {
            "buffer" : 0,
            "byteLength" : 11904,
            "byteOffset" : 0
        },
        {
            "buffer" : 0,
            "byteLength" : 11904,
            "byteOffset" : 11904
        },
        {
            "buffer" : 0,
            "byteLength" : 2976,
            "byteOffset" : 23808
        }
    ],
    "buffers" : [
        {
            "byteLength" : 26784,
            "uri" : "data:application/octet-stream;base64,"
        }
    ]
}
