{
    "asset" : {
        "generator" : "Khronos glTF Blender I/O v1.6.16",
        "version" : "2.0"
    },
    "scene" : 0,
    "scenes" : [
        {
            "name" : "Scene",
            "nodes" : [
                0
            ]
        }
    ],
    "nodes" : [
        {
            "mesh" : 0,
            "name" : "leaves",
            "rotation" : [
                0,
                -0.14212895929813385,
                0,
                0.989848256111145
            ],
            "scale" : [
                0.981542706489563,
                0.981542706489563,
                0.981542706489563
            ],
            "translation" : [
                -0.051192283630371094,
                0.005746126174926758,
                -0.23313134908676147
            ]
        }
    ],
    "materials" : [
        {
            "doubleSided" : true,
            "name" : "M9",
            "pbrMetallicRoughness" : {
                "baseColorFactor" : [
                    0.745509684085846,
                    0.8000000715255737,
                    0.14727665483951569,
                    1
                ],
                "metallicFactor" : 0,
                "roughnessFactor" : 0.5
            }
        }
    ],
    "meshes" : [
        {
            "name" : "Plane.009",
            "primitives" : [
                {
                    "attributes" : {
                        "POSITION" : 0,
                        "NORMAL" : 1
                    },
                    "indices" : 2,
                    "material" : 0
                }
            ]
        }
    ],
    "accessors" : [
        {
            "bufferView" : 0,
            "componentType" : 5126,
            "count" : 1073,
            "max" : [
                4.26851224899292,
                2.768906593322754,
                4.995059013366699
            ],
            "min" : [
                -4.058568000793457,
                -1.358180284500122,
                -2.1709494590759277
            ],
            "type" : "VEC3"
        },
        {
            "bufferView" : 1,
            "componentType" : 5126,
            "count" : 1073,
            "type" : "VEC3"
        },
        {
            "bufferView" : 2,
            "componentType" : 5123,
            "count" : 1395,
            "type" : "SCALAR"
        }
    ],
    "bufferViews" : [
        {
            "buffer" : 0,
            "byteLength" : 12876,
            "byteOffset" : 0
        },
        {
            "buffer" : 0,
            "byteLength" : 12876,
            "byteOffset" : 12876
        },
        {
            "buffer" : 0,
            "byteLength" : 2790,
            "byteOffset" : 25752
        }
    ],
    "buffers" : [
        {
            "byteLength" : 28544,
            "uri" : "data:application/octet-stream;base64,"
        }
    ]
}
