{
    "asset" : {
        "generator" : "Khronos glTF Blender I/O v1.6.16",
        "version" : "2.0"
    },
    "scene" : 0,
    "scenes" : [
        {
            "name" : "Scene",
            "nodes" : [
                0,
                1,
                2
            ]
        }
    ],
    "nodes" : [
        {
            "mesh" : 0,
            "name" : "ground",
            "scale" : [
                94.29808044433594,
                2.48388934135437,
                48.726314544677734
            ],
            "translation" : [
                -1.2857524156570435,
                -2.4813132286071777,
                1.2562360763549805
            ]
        },
        {
            "mesh" : 1,
            "name" : "grass",
            "rotation" : [
                0,
                -0.47130268812179565,
                0,
                0.881971538066864
            ],
            "scale" : [
                14.038860321044922,
                14.038860321044922,
                14.038860321044922
            ],
            "translation" : [
                -1.1945765018463135,
                -1.2116694450378418,
                2.5598678588867188
            ]
        },
        {
            "mesh" : 2,
            "name" : "trunk",
            "rotation" : [
                0,
                -0.14212895929813385,
                0,
                0.989848256111145
            ],
            "scale" : [
                0.981542706489563,
                0.981542706489563,
                0.981542706489563
            ],
            "translation" : [
                0.9370895624160767,
                -2.011564254760742,
                0.8956555128097534
            ]
        }
    ],
    "materials" : [
        {
            "doubleSided" : true,
            "name" : "M9",
            "pbrMetallicRoughness" : {
                "baseColorFactor" : [
                    0.745509684085846,
                    0.8000000715255737,
                    0.14727665483951569,
                    1
                ],
                "metallicFactor" : 0,
                "roughnessFactor" : 0.5
            }
        },
        {
            "doubleSided" : true,
            "name" : "M10",
            "pbrMetallicRoughness" : {
                "baseColorFactor" : [
                    0.7105485796928406,
                    0.23730143904685974,
                    0.06157555431127548,
                    1
                ],
                "metallicFactor" : 0,
                "roughnessFactor" : 0.5
            }
        }
    ],
    "meshes" : [
        {
            "name" : "Cube",
            "primitives" : [
                {
                    "attributes" : {
                        "POSITION" : 0,
                        "NORMAL" : 1
                    },
                    "indices" : 2,
                    "material" : 0
                }
            ]
        },
        {
            "name" : "Plane.010",
            "primitives" : [
                {
                    "attributes" : {
                        "POSITION" : 3,
                        "NORMAL" : 4
                    },
                    "indices" : 5,
                    "material" : 0
                }
            ]
        },
        {
            "name" : "Plane.009",
            "primitives" : [
                {
                    "attributes" : {
                        "POSITION" : 6,
                        "NORMAL" : 7
                    },
                    "indices" : 8,
                    "material" : 1
                }
            ]
        }
    ],
    "accessors" : [
        {
            "bufferView" : 0,
            "componentType" : 5126,
            "count" : 24,
            "max" : [
                1,
                1,
                1
            ],
            "min" : [
                -1,
                -0.7540938258171082,
                -1
            ],
            "type" : "VEC3"
        },
        {
            "bufferView" : 1,
            "componentType" : 5126,
            "count" : 24,
            "type" : "VEC3"
        },
        {
            "bufferView" : 2,
            "componentType" : 5123,
            "count" : 36,
            "type" : "SCALAR"
        },
        {
            "bufferView" : 3,
            "componentType" : 5126,
            "count" : 880,
            "max" : [
                0.9109542965888977,
                0.24577942490577698,
                0.9101645350456238
            ],
            "min" : [
                -1.037824273109436,
                0.08649173378944397,
                -1.0169627666473389
            ],
            "type" : "VEC3"
        },
        {
            "bufferView" : 4,
            "componentType" : 5126,
            "count" : 880,
            "type" : "VEC3"
        },
        {
            "bufferView" : 5,
            "componentType" : 5123,
            "count" : 1566,
            "type" : "SCALAR"
        },
        {
            "bufferView" : 6,
            "componentType" : 5126,
            "count" : 4032,
            "max" : [
                12.45828628540039,
                8.720382690429688,
                17.27011489868164
            ],
            "min" : [
                -12.446121215820312,
                -0.4414381980895996,
                -5.480278491973877
            ],
            "type" : "VEC3"
        },
        {
            "bufferView" : 7,
            "componentType" : 5126,
            "count" : 4032,
            "type" : "VEC3"
        },
        {
            "bufferView" : 8,
            "componentType" : 5123,
            "count" : 6048,
            "type" : "SCALAR"
        }
    ],
    "bufferViews" : [
        {
            "buffer" : 0,
            "byteLength" : 288,
            "byteOffset" : 0
        },
        {
            "buffer" : 0,
            "byteLength" : 288,
            "byteOffset" : 288
        },
        {
            "buffer" : 0,
            "byteLength" : 72,
            "byteOffset" : 576
        },
        {
            "buffer" : 0,
            "byteLength" : 10560,
            "byteOffset" : 648
        },
        {
            "buffer" : 0,
            "byteLength" : 10560,
            "byteOffset" : 11208
        },
        {
            "buffer" : 0,
            "byteLength" : 3132,
            "byteOffset" : 21768
        },
        {
            "buffer" : 0,
            "byteLength" : 48384,
            "byteOffset" : 24900
        },
        {
            "buffer" : 0,
            "byteLength" : 48384,
            "byteOffset" : 73284
        },
        {
            "buffer" : 0,
            "byteLength" : 12096,
            "byteOffset" : 121668
        }
    ],
    "buffers" : [
        {
            "byteLength" : 133764,
            "uri" : "data:application/octet-stream;base64,"
        }
    ]
}
