{
    "asset" : {
        "generator" : "Khronos glTF Blender I/O v1.6.16",
        "version" : "2.0"
    },
    "scene" : 0,
    "scenes" : [
        {
            "name" : "Scene",
            "nodes" : [
                0
            ]
        }
    ],
    "nodes" : [
        {
            "mesh" : 0,
            "name" : "Plane.008",
            "rotation" : [
                0,
                -0.14212895929813385,
                0,
                0.989848256111145
            ],
            "scale" : [
                0.981542706489563,
                0.981542706489563,
                0.981542706489563
            ],
            "translation" : [
                -0.0018775612115859985,
                -0.015158440917730331,
                -0.23313134908676147
            ]
        }
    ],
    "materials" : [
        {
            "doubleSided" : true,
            "name" : "M10",
            "pbrMetallicRoughness" : {
                "baseColorFactor" : [
                    0.7105485796928406,
                    0.23730143904685974,
                    0.06157555431127548,
                    1
                ],
                "metallicFactor" : 0,
                "roughnessFactor" : 0.5
            }
        }
    ],
    "meshes" : [
        {
            "name" : "Plane.009",
            "primitives" : [
                {
                    "attributes" : {
                        "POSITION" : 0,
                        "NORMAL" : 1
                    },
                    "indices" : 2,
                    "material" : 0
                }
            ]
        }
    ],
    "accessors" : [
        {
            "bufferView" : 0,
            "componentType" : 5126,
            "count" : 2904,
            "max" : [
                0.4227260947227478,
                1.5377637147903442,
                9.906747817993164
            ],
            "min" : [
                -11.777533531188965,
                -3.4455459117889404,
                -0.16774876415729523
            ],
            "type" : "VEC3"
        },
        {
            "bufferView" : 1,
            "componentType" : 5126,
            "count" : 2904,
            "type" : "VEC3"
        },
        {
            "bufferView" : 2,
            "componentType" : 5123,
            "count" : 4356,
            "type" : "SCALAR"
        }
    ],
    "bufferViews" : [
        {
            "buffer" : 0,
            "byteLength" : 34848,
            "byteOffset" : 0
        },
        {
            "buffer" : 0,
            "byteLength" : 34848,
            "byteOffset" : 34848
        },
        {
            "buffer" : 0,
            "byteLength" : 8712,
            "byteOffset" : 69696
        }
    ],
    "buffers" : [
        {
            "byteLength" : 78408,
            "uri" : "data:application/octet-stream;base64,"
        }
    ]
}
